<?xml version="1.0" encoding="UTF-8" standalone="no"?>
<!-- Generator: Adobe Illustrator 24.0.3, SVG Export Plug-In . SVG Version: 6.00 Build 0)  -->

<svg
   version="1.1"
   id="Layer_1"
   x="0px"
   y="0px"
   viewBox="0 0 128 128"
   style="enable-background:new 0 0 128 128;"
   xml:space="preserve"
   sodipodi:docname="emoji_u1f9d1_1f3fb_200d_1f4bb.svg"
   inkscape:version="1.4 (e7c3feb100, 2024-10-09)"
   xmlns:inkscape="http://www.inkscape.org/namespaces/inkscape"
   xmlns:sodipodi="http://sodipodi.sourceforge.net/DTD/sodipodi-0.dtd"
   xmlns="http://www.w3.org/2000/svg"
   xmlns:svg="http://www.w3.org/2000/svg"><defs
   id="defs63">
	
	
	
	
	
	
	
	
	
	

		
	
		
			<radialGradient
   id="SVGID_4_"
   cx="99.6381"
   cy="45.941002"
   r="23.419001"
   gradientTransform="matrix(1,0,0,0.4912,-21.0552,59.4924)"
   gradientUnits="userSpaceOnUse">
			<stop
   offset="0.7275"
   style="stop-color:#454140;stop-opacity:0"
   id="stop22" />
			<stop
   offset="1"
   style="stop-color:#454140"
   id="stop23" />
		</radialGradient>
		
		
			<radialGradient
   id="SVGID_5_"
   cx="76.5728"
   cy="49.422901"
   r="6.9208999"
   gradientTransform="matrix(-0.9057,0.4238,-0.3144,-0.6719,186.5418,79.3297)"
   gradientUnits="userSpaceOnUse">
			<stop
   offset="0.6628"
   style="stop-color:#454140"
   id="stop24" />
			<stop
   offset="1"
   style="stop-color:#454140;stop-opacity:0"
   id="stop25" />
		</radialGradient>
		
		
			<radialGradient
   id="SVGID_6_"
   cx="94.509102"
   cy="69.001602"
   r="30.3992"
   gradientTransform="matrix(-0.0746,-0.9972,0.8311,-0.0622,33.4179,157.5364)"
   gradientUnits="userSpaceOnUse">
			<stop
   offset="0.7247"
   style="stop-color:#454140;stop-opacity:0"
   id="stop26" />
			<stop
   offset="1"
   style="stop-color:#454140"
   id="stop27" />
		</radialGradient>
		
		
			<radialGradient
   id="SVGID_7_"
   cx="44.3102"
   cy="69.001602"
   r="30.3992"
   gradientTransform="matrix(0.0746,-0.9972,-0.8311,-0.0622,98.35,107.4774)"
   gradientUnits="userSpaceOnUse">
			<stop
   offset="0.7247"
   style="stop-color:#454140;stop-opacity:0"
   id="stop28" />
			<stop
   offset="1"
   style="stop-color:#454140"
   id="stop29" />
		</radialGradient>
		
		
			<radialGradient
   id="SVGID_8_"
   cx="49.439098"
   cy="45.941002"
   r="23.419001"
   gradientTransform="matrix(-1,0,0,0.4912,98.8783,59.4924)"
   gradientUnits="userSpaceOnUse">
			<stop
   offset="0.7275"
   style="stop-color:#454140;stop-opacity:0"
   id="stop30" />
			<stop
   offset="1"
   style="stop-color:#454140"
   id="stop31" />
		</radialGradient>
		
		
			<radialGradient
   id="SVGID_9_"
   cx="26.373899"
   cy="49.422901"
   r="6.9208999"
   gradientTransform="matrix(0.9057,0.4238,0.3144,-0.6719,-13.0523,100.6049)"
   gradientUnits="userSpaceOnUse">
			<stop
   offset="0.6628"
   style="stop-color:#454140"
   id="stop32" />
			<stop
   offset="1"
   style="stop-color:#454140;stop-opacity:0"
   id="stop33" />
		</radialGradient>
		
	
		
			<radialGradient
   id="SVGID_10_"
   cx="82.018898"
   cy="85.037399"
   r="35.632801"
   gradientTransform="matrix(0.3076,0.9515,0.706,-0.2282,-3.248,-15.675)"
   gradientUnits="userSpaceOnUse">
			<stop
   offset="0.6985"
   style="stop-color:#454140;stop-opacity:0"
   id="stop38" />
			<stop
   offset="1"
   style="stop-color:#454140"
   id="stop39" />
		</radialGradient>
		
		
			<radialGradient
   id="SVGID_11_"
   cx="47.279999"
   cy="123.8908"
   r="9.3425999"
   gradientTransform="matrix(0.8813,0.4726,0.5603,-1.045,-63.8032,111.2318)"
   gradientUnits="userSpaceOnUse">
			<stop
   offset="0.58"
   style="stop-color:#454140"
   id="stop40" />
			<stop
   offset="1"
   style="stop-color:#454140;stop-opacity:0"
   id="stop41" />
		</radialGradient>
		
		
			<radialGradient
   id="SVGID_12_"
   cx="158.96629"
   cy="62.8125"
   r="28.696301"
   gradientTransform="matrix(-0.9378,-0.3944,-0.2182,0.5285,230.9323,50.5742)"
   gradientUnits="userSpaceOnUse">
			<stop
   offset="0.6985"
   style="stop-color:#454140;stop-opacity:0"
   id="stop42" />
			<stop
   offset="1"
   style="stop-color:#454140"
   id="stop43" />
		</radialGradient>
		
		
			<radialGradient
   id="SVGID_13_"
   cx="43.528801"
   cy="115.367"
   r="8.5754995"
   gradientTransform="matrix(1,0,0,-1.2233,0,153.7618)"
   gradientUnits="userSpaceOnUse">
			<stop
   offset="0.7016"
   style="stop-color:#454140;stop-opacity:0"
   id="stop44" />
			<stop
   offset="1"
   style="stop-color:#454140"
   id="stop45" />
		</radialGradient>
		
		
			<radialGradient
   id="SVGID_14_"
   cx="42.348999"
   cy="100.2302"
   r="16.083401"
   gradientTransform="matrix(-0.9657,-0.2598,-0.2432,0.9037,107.6205,-51.8051)"
   gradientUnits="userSpaceOnUse">
			<stop
   offset="0.6605"
   style="stop-color:#454140;stop-opacity:0"
   id="stop46" />
			<stop
   offset="1"
   style="stop-color:#454140"
   id="stop47" />
		</radialGradient>
		
		
			<radialGradient
   id="SVGID_15_"
   cx="38.533401"
   cy="84.700302"
   r="16.885599"
   gradientTransform="matrix(0.9907,0.1363,0.1915,-1.3921,-15.859,155.9584)"
   gradientUnits="userSpaceOnUse">
			<stop
   offset="0.5981"
   style="stop-color:#454140;stop-opacity:0"
   id="stop48" />
			<stop
   offset="1"
   style="stop-color:#454140"
   id="stop49" />
		</radialGradient>
		
	
		
		
	
		
		
	
		
	</defs><sodipodi:namedview
   id="namedview63"
   pagecolor="#ffffff"
   bordercolor="#000000"
   borderopacity="0.25"
   inkscape:showpageshadow="2"
   inkscape:pageopacity="0.0"
   inkscape:pagecheckerboard="0"
   inkscape:deskcolor="#d1d1d1"
   inkscape:zoom="4"
   inkscape:cx="158.25"
   inkscape:cy="106.25"
   inkscape:window-width="3440"
   inkscape:window-height="1371"
   inkscape:window-x="0"
   inkscape:window-y="0"
   inkscape:window-maximized="1"
   inkscape:current-layer="Layer_1"
   showguides="false"><sodipodi:guide
     position="73.054946,63.411678"
     orientation="1,0"
     id="guide17"
     inkscape:locked="false" /><sodipodi:guide
     position="90.126072,66.262241"
     orientation="1,0"
     id="guide18"
     inkscape:locked="false" /><sodipodi:guide
     position="89.869186,62.639535"
     orientation="0,-1"
     id="guide19"
     inkscape:locked="false" /></sodipodi:namedview>
<g
   id="g4">
	
		<linearGradient
   id="SVGID_1_"
   gradientUnits="userSpaceOnUse"
   x1="64"
   y1="119.4903"
   x2="64"
   y2="39.9273"
   gradientTransform="matrix(1 0 0 -1 0 128)">
		<stop
   offset="3.200000e-03"
   style="stop-color:#424242"
   id="stop1" />
		<stop
   offset="0.2705"
   style="stop-color:#353535"
   id="stop2" />
		<stop
   offset="0.7639"
   style="stop-color:#131313"
   id="stop3" />
		<stop
   offset="1"
   style="stop-color:#000000"
   id="stop4" />
	</linearGradient>
	<path
   style="fill:url(#SVGID_1_);"
   d="M120,88H8c-2.21,0-4-1.79-4-4V12c0-2.21,1.79-4,4-4h112c2.21,0,4,1.79,4,4v72   C124,86.21,122.21,88,120,88z"
   id="path4" />
</g>
<linearGradient
   id="SVGID_2_"
   gradientUnits="userSpaceOnUse"
   x1="64"
   y1="119.4903"
   x2="64"
   y2="39.9273"
   gradientTransform="matrix(1 0 0 -1 0 128)">
	<stop
   offset="1.200000e-03"
   style="stop-color:#BFBEBE"
   id="stop5" />
	<stop
   offset="0.15"
   style="stop-color:#212121;stop-opacity:0"
   id="stop6" />
	<stop
   offset="0.7759"
   style="stop-color:#212121;stop-opacity:0"
   id="stop7" />
	<stop
   offset="1"
   style="stop-color:#BFBEBE"
   id="stop8" />
</linearGradient>
<path
   style="opacity:0.3;fill:url(#SVGID_2_);enable-background:new    ;"
   d="M120,88H8c-2.21,0-4-1.79-4-4V12c0-2.21,1.79-4,4-4  h112c2.21,0,4,1.79,4,4v72C124,86.21,122.21,88,120,88z"
   id="path8" />
<linearGradient
   id="SVGID_3_"
   gradientUnits="userSpaceOnUse"
   x1="4.5921"
   y1="80"
   x2="123.9365"
   y2="80"
   gradientTransform="matrix(1 0 0 -1 0 128)">
	<stop
   offset="1.200000e-03"
   style="stop-color:#BFBEBE"
   id="stop9" />
	<stop
   offset="0.1"
   style="stop-color:#212121;stop-opacity:0"
   id="stop10" />
	<stop
   offset="0.9"
   style="stop-color:#212121;stop-opacity:0"
   id="stop11" />
	<stop
   offset="1"
   style="stop-color:#BFBEBE"
   id="stop12" />
</linearGradient>
<path
   style="opacity:0.3;fill:url(#SVGID_3_);enable-background:new    ;"
   d="M119.83,88h-112c-2.21,0-4-1.79-4-4V12  c0-2.21,1.79-4,4-4h112c2.21,0,4,1.79,4,4v72C123.83,86.21,122.04,88,119.83,88z"
   id="path12" />
<g
   id="g22"
   style="fill:#6c5b00;fill-opacity:1">
	
	
	
	
	
	
	
	
	
	
	<g
   id="g60"
   style="fill:#6c5b00;fill-opacity:1"><rect
     x="12"
     y="16"
     style="fill:#6c5b00;fill-opacity:1"
     width="24"
     height="4"
     id="rect12" /><rect
     x="86"
     y="16"
     style="fill:#6c5b00;fill-opacity:1"
     width="16"
     height="4"
     id="rect13" /><rect
     x="108"
     y="16"
     style="fill:#6c5b00;fill-opacity:1"
     width="8"
     height="4"
     id="rect14" /><rect
     x="20"
     y="28"
     style="fill:#6c5b00;fill-opacity:1"
     width="8"
     height="4"
     id="rect15" /><rect
     x="12"
     y="40"
     style="fill:#6c5b00;fill-opacity:1"
     width="16"
     height="4"
     id="rect16" /><rect
     x="12"
     y="52"
     style="fill:#6c5b00;fill-opacity:1"
     width="8"
     height="4"
     id="rect17" /><rect
     x="98"
     y="52"
     style="fill:#6c5b00;fill-opacity:1"
     width="12"
     height="4"
     id="rect18" /><rect
     x="104"
     y="40"
     style="fill:#6c5b00;fill-opacity:1"
     width="12"
     height="4"
     id="rect19" /><rect
     x="12"
     y="64"
     style="fill:#6c5b00;fill-opacity:1"
     width="16"
     height="4"
     id="rect20" /><rect
     x="96"
     y="64"
     style="fill:#6c5b00;fill-opacity:1"
     width="20"
     height="4"
     id="rect21" /><rect
     x="100"
     y="28"
     style="fill:#6c5b00;fill-opacity:1"
     width="12"
     height="4"
     id="rect22" /></g>
</g>
<path
   style="fill:url(#SVGID_4_)"
   d="M 63.99,95.7 V 86.26 L 92.56,84 l 2.6,3.2 c 0,0 -6.15,8.51 -22.23,8.51 z"
   id="path23" /><path
   style="fill:url(#SVGID_5_)"
   d="m 95.1,83.07 c -4.28,-6.5 5.21,-8.93 5.21,-8.93 0,0 0.01,0.01 0.01,0.01 -1.65,2.05 -2.4,3.84 -1.43,5.61 1.21,2.21 4.81,2.53 4.81,2.53 0,0 -4.91,4.36 -8.6,0.78 z"
   id="path25" /><path
   style="fill:url(#SVGID_8_)"
   d="M 64.03,95.7 V 86.26 L 35.46,84 l -2.6,3.2 c 0,0 6.15,8.51 22.23,8.51 z"
   id="path31" /><path
   style="fill:url(#SVGID_9_)"
   d="m 32.92,83.07 c 4.28,-6.5 -5.21,-8.93 -5.21,-8.93 0,0 -0.01,0.01 -0.01,0.01 1.65,2.05 2.4,3.84 1.43,5.61 -1.21,2.21 -4.81,2.53 -4.81,2.53 0,0 4.91,4.36 8.6,0.78 z"
   id="path33" /><path
   style="fill:#69421f;fill-opacity:1"
   d="M 91.33,50.34 H 36.67 c -5.89,0 -10.71,5.13 -10.71,11.41 0,6.28 4.82,11.41 10.71,11.41 h 54.65 c 5.89,0 10.71,-5.14 10.71,-11.41 0.01,-6.27 -4.81,-11.41 -10.7,-11.41 z"
   id="path34" /><path
   style="fill:#6f4421;fill-opacity:1"
   d="m 64,10.98 v 0 0 c -17.4,0 -33.52,18.61 -33.52,45.4 0,26.64 16.61,39.81 33.52,39.81 16.91,0 33.52,-13.17 33.52,-39.81 C 97.52,29.59 81.4,10.98 64,10.98 Z"
   id="path35" /><path
   id="mouth_2_"
   style="fill:#444444"
   d="m 72.42,76.05 c -3.18,1.89 -13.63,1.89 -16.81,0 -1.83,-1.09 -3.7,0.58 -2.94,2.24 0.75,1.63 6.44,5.42 11.37,5.42 4.93,0 10.55,-3.79 11.3,-5.42 0.75,-1.66 -1.09,-3.33 -2.92,-2.24 z" /><path
   id="nose_2_"
   style="fill:#361e0b;fill-opacity:1"
   d="m 67.86,67.96 c -0.11,-0.04 -0.21,-0.07 -0.32,-0.08 h -7.08 c -0.11,0.01 -0.22,0.04 -0.32,0.08 -0.64,0.26 -0.99,0.92 -0.69,1.63 0.3,0.71 1.71,2.69 4.55,2.69 2.84,0 4.25,-1.99 4.55,-2.69 0.3,-0.7 -0.05,-1.37 -0.69,-1.63 z" />
<g
   id="sleeve">
	<g
   id="g52">
		
			<linearGradient
   id="SVGID_16_"
   gradientUnits="userSpaceOnUse"
   x1="5.625"
   y1="9.825"
   x2="22.467"
   y2="9.825"
   gradientTransform="matrix(1 0 0 -1 0 128)">
			<stop
   offset="0"
   style="stop-color:#FB8C00"
   id="stop50" />
			<stop
   offset="0.482"
   style="stop-color:#F67F00"
   id="stop51" />
			<stop
   offset="1"
   style="stop-color:#EF6C00"
   id="stop52" />
		</linearGradient>
		<path
   style="fill:#641c01;fill-opacity:1"
   d="M7.63,123.98h12.83c1.12-0.09,2.01-1.18,2.01-2.52v-0.65c0-3.58-1.61-6.71-4.02-8.45    c0,0.15,0.01,0.3,0.01,0.45c0,4.1-1.98,7.42-4.41,7.42s-4.41-3.32-4.41-7.42c0-0.15,0.01-0.3,0.01-0.45    c-2.41,1.75-4.02,4.87-4.02,8.45v0.65C5.62,122.81,6.51,123.89,7.63,123.98z"
   id="path52" />
	</g>
	<g
   id="g53">
		<path
   style="fill:#a32f01;fill-opacity:1"
   d="M14.05,120.24c9,0,4.41-3.32,4.41-7.42c0-0.15-0.01-0.3-0.01-0.45c-1.28-0.93-2.79-1.48-4.4-1.48    s-3.12,0.55-4.4,1.48c-0.01,0.15-0.01,0.3-0.01,0.45C9.63,116.92,5,120.24,14.05,120.24z"
   id="path53" />
	</g>
</g>
<g
   id="hand_1_"
   style="fill:#6f4421;fill-opacity:1">
	
		<linearGradient
   id="SVGID_17_"
   gradientUnits="userSpaceOnUse"
   x1="20.4278"
   y1="15.083"
   x2="10.747"
   y2="28.8596"
   gradientTransform="matrix(1 0 0 -1 0 128)">
		<stop
   offset="0"
   style="stop-color:#FFD29C"
   id="stop53" />
		<stop
   offset="0.5"
   style="stop-color:#F9DDBD"
   id="stop54" />
	</linearGradient>
	<path
   style="fill:#6f4421;fill-opacity:1"
   d="M27.98,106.8c-0.11-2.84-2.23-8.7-5-9.19c-0.17-0.03-0.32-0.11-0.41-0.25   c-0.44-0.67-1.85-2.47-4.43-1.05c-0.96,0.53-1.3,1-1.14,1.68c-0.12,0.14-0.34,0.31-0.66,0.18c-1.04-1.16-2.32-1.4-3.81-0.24   c-1.69,1.32-1.69,2.26-1.39,3.19l-0.01,0.01c0,0-0.07,0.65-0.56,0.6c-0.51-0.44-1.12-0.44-2.09,0.26c-2.6,1.88-1.53,3.66-1.09,4.71   c-0.06,0.1-0.16,0.17-0.32,0.16c-0.34-0.18-0.77-0.18-1.35,0.15c-1.38,0.79-1.18,3.39-0.79,4.24c0.43,0.93,2.8,4.19,3.61,5.11   c0.19,0.21,0.42,0.36,0.67,0.46c-0.03-0.01-0.06-0.02-0.08-0.03c0.71,0.44,1.95,0.97,3.16,0.22c0,0,0.77-0.56,0.84-1.15   c1.31,0.73,3.12-0.63,3.12-0.63c0.85-0.65,1.07-1.38,1.04-2.01l0,0c0.43,0.26,0.9,0.36,1.35,0.37c1.36,0.04,2.61-0.76,2.61-0.76   c1.95-1.11,2.34-2.27,2.33-3.04c1.01,0.63,2.26,0.16,2.26,0.16C28.05,108.95,27.98,106.8,27.98,106.8z"
   id="path54" />
</g>
<g
   id="g57">
	
		<linearGradient
   id="SVGID_18_"
   gradientUnits="userSpaceOnUse"
   x1="99.2033"
   y1="9.1523"
   x2="120.7994"
   y2="9.1523"
   gradientTransform="matrix(1 0 0 -1 0 128)">
		<stop
   offset="0"
   style="stop-color:#FB8C00"
   id="stop55" />
		<stop
   offset="0.482"
   style="stop-color:#F67F00"
   id="stop56" />
		<stop
   offset="1"
   style="stop-color:#EF6C00"
   id="stop57" />
	</linearGradient>
	<path
   style="fill:#641c01;fill-opacity:1"
   d="M107.96,123.98h12.84c0,0,0.56-9.79-15.16-10.26C89.91,113.26,107.96,123.98,107.96,123.98z   "
   id="path57" />
</g>
<g
   id="hand">
	
		<linearGradient
   id="SVGID_19_"
   gradientUnits="userSpaceOnUse"
   x1="141.6224"
   y1="10.2402"
   x2="131.9416"
   y2="24.0168"
   gradientTransform="matrix(-1 0 0 -1 248.6394 128)">
		<stop
   offset="0"
   style="stop-color:#FFD29C"
   id="stop58" />
		<stop
   offset="0.5"
   style="stop-color:#F9DDBD"
   id="stop59" />
	</linearGradient>
	<path
   style="fill:#6f4421;fill-opacity:1"
   d="M99.46,111.64c0.11-2.84,2.23-8.7,5-9.19c0.17-0.03,0.32-0.11,0.41-0.25   c0.44-0.67,1.85-2.47,4.43-1.05c0.96,0.53,1.3,1,1.14,1.68c0.12,0.14,0.34,0.31,0.66,0.18c1.04-1.16,2.32-1.4,3.81-0.24   c1.69,1.32,1.69,2.26,1.39,3.19l0.01,0.01c0,0,0.07,0.65,0.56,0.6c0.51-0.44,1.12-0.44,2.09,0.26c2.6,1.88,1.53,3.66,1.09,4.71   c0.06,0.1,0.15,0.17,0.32,0.16c0.34-0.18,0.77-0.18,1.35,0.15c1.38,0.79,1.18,3.39,0.79,4.24c-0.43,0.93-2.79,4.19-3.61,5.11   c-0.19,0.21-0.42,0.36-0.67,0.46c0.03-0.01,0.06-0.02,0.08-0.03c-0.71,0.44-1.95,0.97-3.16,0.22c0,0-0.77-0.56-0.84-1.15   c-1.31,0.73-3.12-0.63-3.12-0.63c-0.85-0.65-1.07-1.38-1.04-2.01l0,0c-0.43,0.26-0.9,0.36-1.35,0.37   c-1.36,0.04-2.61-0.76-2.61-0.76c-1.95-1.11-2.34-2.27-2.33-3.04c-1.01,0.63-2.26,0.16-2.26,0.16   C99.39,113.79,99.46,111.64,99.46,111.64z"
   id="path59" />
</g>
<path
   id="tone_1_"
   style="fill:#27190c;fill-opacity:1"
   d="M116.24,121.56c-0.17-0.09-0.33-0.19-0.48-0.32c-0.02-0.02-0.05-0.04-0.07-0.07  c-0.28-0.31-0.36-0.81,0.37-1.81c2-2.65,2.79-4.63,2.79-4.63c0.55-1.39,0.35-1.62,0.35-1.62c-0.19-0.31-0.58,0.59-0.58,0.59  c-1.98,3.57-3.34,5.13-3.93,5.71c-0.03,0.02-0.06,0.04-0.09,0.05c-0.11,0.07-0.23,0.14-0.36,0.19c-0.05,0.02-0.11,0.04-0.16,0.06  c-0.11,0.04-0.23,0.06-0.35,0.08c-0.06,0.01-0.12,0.02-0.19,0.02c-0.13,0-0.26-0.01-0.4-0.04c-0.06-0.01-0.12-0.01-0.18-0.03  c-0.2-0.06-0.41-0.13-0.62-0.26c-0.1-0.06-0.19-0.12-0.28-0.19c-0.04-0.04-0.09-0.08-0.13-0.12c-0.04-0.04-0.09-0.08-0.13-0.12  c-0.05-0.06-0.1-0.13-0.15-0.19c-0.02-0.03-0.05-0.06-0.07-0.1c-0.05-0.08-0.09-0.16-0.13-0.25c-0.01-0.03-0.03-0.06-0.04-0.09  c-0.04-0.09-0.06-0.19-0.08-0.29c-0.01-0.03-0.02-0.06-0.03-0.09c-0.02-0.1-0.02-0.21-0.03-0.31c0-0.04-0.01-0.07-0.01-0.1  c0-0.11,0.02-0.22,0.04-0.33c0.01-0.04,0.01-0.08,0.02-0.13c0.02-0.11,0.07-0.22,0.11-0.34c0.02-0.05,0.03-0.1,0.05-0.14  c2.28-3.22,3.46-6.03,3.46-6.03c0.38-0.78,0.52-1.6,0.52-1.6c-0.25-0.46-0.65,0.21-0.65,0.21c-2.6,4.84-4.14,6.78-4.14,6.78  s-1.21,2.11-3.86,0.53c0,0-1.31-0.84-1.53-1.43c-0.19-0.49-0.31-1.36,0.36-2.6c0,0,1.59-3.25,4.21-7.34c0,0,0.17-0.64-0.42-0.28  c-0.46,0.28-0.79,0.86-0.95,1.04c0,0-1.55,2.07-3.8,6.2c0,0-0.5,0.95-1.08,1.42c-0.57,0.24-1.29,0.15-2.08-0.44  c-1.71-1.28-1.07-3.07-0.12-4.91c0.52-1,1.71-3.25,2.84-5.05c0.11-0.04,0.22-0.08,0.33-0.1c0.36-0.06,0.65-0.25,0.83-0.53  c0.9-1.37,0.19-2.61-1.07-0.7c-3.16,0.54-5.4,6.72-5.51,9.77c0,0,0,0,0,0c0,0.11-0.05,2.59,2.51,3.73c0.08,0.03,1.01,0.37,2.01,0.14  c0.25,0.83,0.93,1.8,2.52,2.71c0.03,0.02,1.42,0.87,2.94,0.85c0.28-0.01,0.56-0.04,0.82-0.11c0.16,0.52,0.5,1.09,1.18,1.61  c0.08,0.06,1.64,1.23,3.14,0.93c0.29,0.46,0.71,0.78,0.82,0.86c0.46,0.29,0.95,0.44,1.45,0.48h0.45c0.64-0.04,1.31-0.26,1.97-0.67  c0.01,0,0.01-0.01,0.02-0.01c1.55-1.06,3.78-5.49,3.78-5.94C122.43,116.2,119.07,122.04,116.24,121.56z" />
<path
   id="tone"
   style="fill:#27190c;fill-opacity:1"
   d="M28.43,106.24C28.43,106.24,28.43,106.24,28.43,106.24c-0.12-3.05-2.36-9.23-5.51-9.77  c-1.25-1.91-1.97-0.67-1.07,0.7c0.18,0.28,0.48,0.46,0.83,0.53c0.11,0.02,0.22,0.06,0.33,0.1c1.13,1.8,2.32,4.06,2.84,5.05  c0.95,1.83,1.58,3.62-0.12,4.91c-0.79,0.59-1.5,0.68-2.08,0.44c-0.57-0.47-1.08-1.42-1.08-1.42c-2.25-4.13-3.8-6.2-3.8-6.2  c-0.16-0.18-0.48-0.75-0.95-1.04c-0.59-0.36-0.42,0.28-0.42,0.28c2.62,4.08,4.21,7.34,4.21,7.34c0.68,1.24,0.56,2.11,0.36,2.6  c-0.22,0.59-1.53,1.43-1.53,1.43c-2.64,1.58-3.86-0.53-3.86-0.53s-1.55-1.94-4.14-6.78c0,0-0.41-0.67-0.65-0.21  c0,0,0.14,0.82,0.52,1.6c0,0,1.18,2.8,3.46,6.03c0.02,0.05,0.03,0.1,0.05,0.14c0.04,0.11,0.08,0.23,0.11,0.34  c0.01,0.04,0.01,0.08,0.02,0.13c0.02,0.11,0.04,0.22,0.04,0.33c0,0.04-0.01,0.07-0.01,0.1c0,0.11-0.01,0.21-0.03,0.31  c-0.01,0.03-0.02,0.06-0.02,0.09c-0.02,0.1-0.05,0.2-0.09,0.29c-0.01,0.03-0.03,0.06-0.04,0.09c-0.04,0.08-0.08,0.17-0.13,0.25  c-0.02,0.03-0.05,0.06-0.07,0.1c-0.05,0.07-0.1,0.13-0.15,0.19c-0.04,0.04-0.09,0.08-0.13,0.12c-0.04,0.04-0.08,0.08-0.13,0.12  c-0.09,0.07-0.19,0.14-0.28,0.19c-0.22,0.12-0.43,0.21-0.62,0.26c-0.06,0.02-0.12,0.02-0.19,0.03c-0.14,0.02-0.27,0.04-0.4,0.04  c-0.06,0-0.13-0.01-0.19-0.02c-0.12-0.02-0.24-0.04-0.35-0.08c-0.05-0.02-0.11-0.04-0.16-0.06c-0.12-0.05-0.24-0.12-0.36-0.19  c-0.03-0.02-0.06-0.03-0.09-0.05c-0.59-0.58-1.95-2.14-3.93-5.71c0,0-0.39-0.9-0.58-0.59c0,0-0.2,0.24,0.35,1.62  c0,0,0.79,1.98,2.79,4.63c0.73,1,0.65,1.5,0.37,1.81c-0.02,0.02-0.05,0.04-0.07,0.07c-0.14,0.13-0.31,0.23-0.48,0.32  c-2.83,0.49-6.2-5.36-6.2-5.36c0,0.46,2.23,4.89,3.78,5.94c0.01,0,0.01,0.01,0.02,0.01c0.66,0.41,1.32,0.63,1.97,0.67h0.45  c0.51-0.04,1-0.19,1.45-0.48c0.11-0.08,0.53-0.41,0.82-0.86c1.5,0.3,3.07-0.87,3.14-0.93c0.68-0.52,1.02-1.09,1.18-1.61  c0.26,0.07,0.53,0.11,0.82,0.11c1.52,0.03,2.91-0.83,2.94-0.85c1.59-0.9,2.27-1.88,2.52-2.71c1,0.22,1.93-0.11,2.01-0.14  C28.49,108.83,28.44,106.35,28.43,106.24z" />
<g
   id="computerscreen">
	<g
   id="g61">
		
			<linearGradient
   id="SVGID_20_"
   gradientUnits="userSpaceOnUse"
   x1="63.190434"
   y1="52.503017"
   x2="64"
   y2="-14.9387"
   gradientTransform="matrix(1 0 0 -1 0 128)">
			<stop
   offset="0"
   style="stop-color:#aca89c;stop-opacity:0.99607843"
   id="stop60" />
			<stop
   offset="1"
   style="stop-color:#71706c;stop-opacity:1"
   id="stop61" />
		</linearGradient>
		<path
   style="fill:url(#SVGID_20_)"
   d="M110,123.98V81.17c0-3.58-2.92-6.5-6.5-6.5h-79c-3.58,0-6.5,2.92-6.5,6.5v42.82H110z"
   id="path61" />
	</g>
	
		<linearGradient
   id="SVGID_21_"
   gradientUnits="userSpaceOnUse"
   x1="63.9995"
   y1="35.4042"
   x2="63.9995"
   y2="-3.874"
   gradientTransform="matrix(1 0 0 -1 0 128)">
		<stop
   offset="0"
   style="stop-color:#00BCD4"
   id="stop62" />
		<stop
   offset="1"
   style="stop-color:#0097A7"
   id="stop63" />
	</linearGradient>
	<path
   style="fill:#4b4947;fill-opacity:0.99607843"
   d="M78.99,123.98c-0.61-1.93-1.41-4.11-2.09-6.43c-1.37-4.66-1.94-12.44-2.18-17.87   c-0.15-3.43-2.99-6.14-6.45-6.14h-8.55c-3.46,0-6.3,2.7-6.45,6.14c-0.24,5.43-0.81,13.21-2.18,17.87c-0.68,2.32-1.47,4.5-2.09,6.43   H78.99z"
   id="path63" />
</g>
<path
   id="path14"
   style="fill:#ffffff;stroke-width:1.09718"
   d="m 53.724506,60.808588 c 0,1.166879 -0.335342,2.393231 -1.462309,3.221706 -1.415006,1.040223 -3.651406,1.157553 -6.022485,1.200477 -5.533903,0.100178 -7.856887,-1.790186 -7.856887,-4.422183 0,-0.476118 0.19888,-0.907306 0.409237,-1.341129 0.952503,-1.964365 3.814991,-3.424524 7.304537,-3.424524 3.337952,0 5.751376,0.894832 6.82575,2.727955 0.29684,0.506476 0.802157,1.467923 0.802157,2.037698 z"
   sodipodi:nodetypes="ssssssss" /><path
   id="path15"
   style="fill:#ffffff;stroke-width:1.09718"
   d="m 73.588549,60.980323 c 0,1.166879 0.335342,2.393231 1.462309,3.221706 1.415006,1.040223 3.651242,1.167877 6.022485,1.200477 5.204744,0.07156 7.856887,-1.790186 7.856887,-4.422183 0,-0.476118 -0.07723,-1.136286 -0.287591,-1.570109 -0.952503,-1.964365 -3.936637,-3.195544 -7.426183,-3.195544 -3.337952,0 -5.751376,0.894832 -6.82575,2.727955 -0.29684,0.506476 -0.802157,1.467923 -0.802157,2.037698 z"
   sodipodi:nodetypes="ssssssss" /><path
   id="path16"
   style="fill:#403525;fill-opacity:0.996078;stroke-width:0.858287"
   d="M 46.080078 56.042969 C 44.706194 56.044704 43.434229 56.275851 42.333984 56.671875 C 41.905407 57.046056 41.592099 57.632845 41.445312 58.554688 C 41.374157 59.001576 41.245484 59.558922 41.302734 60.693359 C 41.393803 62.498081 42.016897 64.220462 43.494141 65.089844 C 44.30334 65.1995 45.217155 65.248989 46.240234 65.230469 C 47.349098 65.210395 48.426535 65.172608 49.40625 65.033203 C 49.441858 64.987789 49.476192 64.940202 49.509766 64.888672 C 50.786165 62.929607 51.124674 61.931995 51.177734 60.394531 C 51.207172 59.541526 50.710997 57.803351 50.529297 57.296875 C 50.436513 57.038245 50.321483 56.829195 50.1875 56.658203 C 49.062107 56.247773 47.685047 56.042969 46.095703 56.042969 C 46.090444 56.042976 46.085341 56.042969 46.080078 56.042969 z " /><path
   id="path19"
   style="fill:#403525;fill-opacity:0.996078;stroke-width:0.858287"
   d="M 81.291016 56.330078 C 79.701672 56.330078 78.324612 56.534883 77.199219 56.945312 C 77.065236 57.116305 76.907593 57.33704 76.787109 57.583984 C 76.554811 58.060101 76.169424 58.614284 76.208984 60.681641 C 76.238416 62.219739 76.600554 63.216716 77.876953 65.175781 C 77.884629 65.187562 77.89263 65.197595 77.900391 65.208984 C 78.881612 65.350108 79.963112 65.387068 81.074219 65.402344 C 82.249138 65.418498 83.291458 65.335473 84.205078 65.167969 C 85.472144 64.226004 86.101159 62.459414 86.185547 60.787109 C 86.242798 59.652672 86.184441 59.226185 86.113281 58.779297 C 85.966494 57.857454 85.481311 57.333165 85.052734 56.958984 C 83.952489 56.56296 82.680525 56.331778 81.306641 56.330078 C 81.301371 56.330078 81.296316 56.330085 81.291016 56.330078 z " /><path
   id="path11"
   style="fill:#1d150d;stroke-width:1.22117"
   d="m 66.5,4.6132812 c -0.695481,0.07787 -1.364332,0.3284772 -2.019531,0.7519532 l -0.81836,0.5292968 -0.28125,-0.28125 C 63.2261,5.4585112 62.758325,5.1725716 62.339844,4.9785156 61.71087,4.6868776 61.378228,4.6247567 60.431641,4.6210938 c -0.999134,-0.0034 -1.249818,0.048522 -1.955079,0.3945312 -0.444577,0.218113 -1.095313,0.6916724 -1.447265,1.0527344 -0.351952,0.361062 -0.638672,0.5981709 -0.638672,0.5292968 0,-0.2583739 -1.577932,-0.8288237 -2.537109,-0.9179687 -1.866321,-0.173454 -3.836913,0.7108451 -4.773438,2.1425781 -0.252891,0.38662 -0.495832,0.8061907 -0.541016,0.9316406 -0.07637,0.2120681 -0.134236,0.2086119 -0.822265,-0.033203 -2.168914,-0.762313 -4.48931,-0.3095185 -5.962891,1.1640625 -0.616848,0.6168483 -1.3963,2.0480563 -1.396484,2.5683593 -9.7e-5,0.276997 -0.06212,0.29614 -1.195313,0.304687 -1.967714,0.01535 -3.512349,0.656562 -4.71289,1.958985 -0.72525,0.786809 -1.070342,1.506539 -1.34961,2.804687 l -0.232421,1.087891 -0.859376,0.173828 c -2.993786,0.610681 -5.094196,3.450127 -4.816406,6.513672 0.06404,0.706213 0.04373,0.808088 -0.185547,0.880859 -0.363784,0.115461 -1.258115,1.343407 -1.585937,2.177735 -0.450415,1.146265 -0.637737,2.828401 -0.431641,3.865234 l 0.173828,0.873047 -0.414062,0.515625 c -1.293536,1.609628 -1.739952,4.84968 -0.966797,7.021484 0.263588,0.740526 0.293,1.003514 0.212891,2.021485 -0.16316,2.072015 0.299603,5.82084 1.027343,8.304687 0.218003,0.744071 0.417715,1.472904 0.44336,1.621094 0.06758,0.390969 1.114696,2.194054 1.666015,2.869141 0.472435,0.578484 2.089858,1.718474 2.603516,1.861328 l 0.146484,-1.134766 c -0.01243,-0.130046 -0.06264,-0.381014 -0.03711,-0.365234 0.01395,0.0086 0.03808,0.180549 0.05469,0.222656 0.395961,-1.940469 0.625517,-2.726754 1.033737,-4.548038 0.42373,0.414469 0.337855,-1.218405 0.340165,-2.001534 l 0.0059,-1.475284 0.350703,-2.232956 c 0.924753,-2.160503 1.522515,-4.078856 2.603516,-8.34961 0.736192,-2.908478 1.442345,-4.876079 2.216797,-6.179687 0.661359,-1.11322 0.829143,-1.265414 1.61914,-1.490235 0.779751,-0.221906 1.682212,-0.889464 2.494141,-1.839844 0.721868,-0.844957 0.642371,-0.835681 2.154297,-0.257812 1.148409,0.438934 2.68391,0.577534 3.71875,0.335938 0.39937,-0.09324 1.166397,-0.369298 1.705078,-0.615235 l 0.980469,-0.447265 1.148437,0.552734 c 0.935108,0.448698 1.336523,0.563249 2.146485,0.615234 1.183115,0.07593 1.946021,-0.09246 3.261718,-0.722656 l 0.970704,-0.464844 1.384765,0.625 c 4.075422,1.834054 7.939158,1.801559 11.712891,-0.09375 l 1.03125,-0.517578 1.005859,0.523438 c 1.787641,0.925061 3.411917,0.885488 5.402344,-0.13086 l 1.058594,-0.542968 1.164062,0.537109 c 0.639744,0.294663 1.492242,0.60474 1.896485,0.691406 1.103042,0.236485 2.855156,0.0891 3.966796,-0.333984 l 0.929688,-0.351563 0.654297,0.640625 c 0.788837,0.775501 2.12433,1.609465 2.925781,1.826172 0.445921,0.120578 0.678005,0.289497 0.958984,0.699219 1.105843,1.61252 1.782816,3.521273 3.111328,8.785156 0.526472,2.085967 1.174017,4.307679 1.466797,5.023438 0.28869,0.705711 0.711977,1.731152 0.941407,2.28125 0.22944,0.550097 0.476415,1.399489 0.546875,1.886718 0.145041,1.002323 0.157855,2.157945 0.04492,2.365235 l 0.292969,0.466797 0.3125,5.765625 0.464844,-0.04297 c 0.69656,-0.06217 1.782388,-0.679158 2.337898,-1.328125 0.25317,-0.295782 0.74411,-1.097639 1.09375,-1.783203 l 0.63671,-1.248047 0.13672,0.01172 -0.0312,-0.263672 c -0.002,-0.0028 -0.0351,-0.0073 -0.0351,-0.0098 8e-4,-0.0455 0.0951,-0.385385 0.20898,-0.755859 0.7471,-2.429493 1.37117,-7.235835 1.2168,-9.363281 -0.071,-0.97851 -0.0399,-1.253565 0.20703,-1.886719 0.20012,-0.513257 0.30797,-1.158775 0.35352,-2.101563 0.0809,-1.672068 -0.24587,-2.944454 -1.12305,-4.367187 l -0.57227,-0.929688 0.15039,-0.878906 c 0.29914,-1.746393 -0.48639,-4.283297 -1.70898,-5.523437 -0.61262,-0.620986 -0.61866,-0.641751 -0.62109,-1.53125 -0.004,-1.899673 -0.718958,-3.705829 -1.906258,-4.816407 -0.74805,-0.699716 -1.658761,-1.155406 -2.957031,-1.478515 l -0.892578,-0.220704 -0.142578,-0.867187 c -0.193692,-1.1689 -0.68773,-2.195933 -1.445313,-3.005859 -1.14303,-1.221996 -2.72228,-1.885724 -4.617187,-1.935547 l -1.097657,-0.0293 -0.08594,-0.404297 C 86.877152,11.597513 86.282081,10.51727 85.734375,9.9472656 84.351588,8.5082066 81.617315,7.935396 79.574219,8.65625 78.86715,8.905697 78.888672,8.9049486 78.888672,8.683594 c 0,-0.09844 -0.190756,-0.4664804 -0.423828,-0.8183594 C 77.010692,5.6698714 73.674225,4.9609329 71.660156,6.4199219 L 71.123047,6.8085938 70.863281,6.4179688 C 70.538377,5.9273038 69.437788,5.1624294 68.675781,4.8964844 67.916258,4.6314124 67.195483,4.5373654 66.5,4.6152344 Z M 81.710938,43.494141 c -4.32109,-0.146024 -9.002641,0.914366 -9.845704,2.375 -0.554824,0.96124 -0.413135,2.102126 0.328125,2.630859 0.376339,0.268437 0.583986,0.305058 1.708985,0.294922 0.825155,-0.0074 1.707702,-0.116282 2.484375,-0.306641 1.962842,-0.481095 3.547425,-0.690831 5.21875,-0.691406 1.992088,-6.85e-4 3.032583,0.144441 5.632812,0.792969 1.512011,0.377116 2.256341,0.502424 2.695313,0.451172 1.166715,-0.13623 1.751953,-0.651926 1.751953,-1.544922 0,-0.420081 -0.09865,-0.604448 -0.560547,-1.052735 -1.180953,-1.146078 -4.729222,-2.456811 -7.597656,-2.808593 -0.590413,-0.0724 -1.199109,-0.119763 -1.816406,-0.140625 z m -34.748047,0.06641 c -1.502251,-2.29e-4 -3.006552,0.0783 -3.869141,0.238281 -2.955063,0.548061 -5.427622,1.515059 -6.623047,2.589844 -0.639328,0.57477 -0.691406,0.670319 -0.691406,1.230469 0,0.502413 0.06769,0.673984 0.40625,0.990234 0.224975,0.210164 0.544969,0.407703 0.708984,0.439453 0.81624,0.158041 1.635545,0.03965 3.830078,-0.546875 l 2.394532,-0.638672 2.560547,0.0078 c 2.407308,0.0061 2.704694,0.03505 5.005859,0.503906 1.345736,0.274188 2.680496,0.500116 2.964844,0.5 1.601535,-6.49e-4 2.610514,-1.710712 1.759765,-2.980469 -0.660541,-0.985864 -2.069104,-1.628218 -4.580078,-2.09375 -0.864317,-0.160244 -2.364934,-0.240004 -3.867187,-0.240234 z m 34.998047,11.115234 c -0.982328,-0.04799 -1.958906,0.02868 -2.808594,0.240235 -1.66843,0.415386 -3.192099,1.230449 -4.392578,2.351562 -0.936512,0.874603 -1.897009,2.061969 -1.771485,2.1875 0.02988,0.02988 0.27325,-0.09602 0.542969,-0.279297 0.711525,-0.483494 0.803084,-0.41411 0.396484,0.306641 -0.31373,0.556122 -0.361328,0.790574 -0.361328,1.794922 0,1.051671 0.03458,1.215261 0.40625,1.816406 0.224634,0.363325 0.703916,0.885706 1.064453,1.158203 0.618814,0.4677 1.870767,0.933211 2.445313,0.912109 0.143328,-0.0053 -0.164928,-0.127294 -0.683594,-0.273437 -2.320716,-0.653912 -3.489153,-2.336348 -3.058594,-4.398437 0.313901,-1.503442 1.356978,-2.472239 3.205078,-2.97461 0.577197,-0.156897 1.067864,-0.268025 1.087891,-0.248047 0.01998,0.01998 -0.143337,0.305491 -0.361328,0.634766 -0.515051,0.777985 -0.71328,1.705875 -0.652344,3.048828 0.04165,0.917241 0.120808,1.224955 0.519531,2.005859 0.54303,1.063518 1.308607,1.730321 2.273438,1.984375 l 0.619141,0.164063 -0.804688,0.07813 -0.806641,0.08008 0.671876,0.01953 c 0.944327,0.03149 2.774595,-0.311365 3.423828,-0.642578 0.300175,-0.153135 0.74927,-0.457591 1,-0.677734 0.250729,-0.220139 0.504861,-0.356626 0.564453,-0.302735 0.05959,0.05388 0.06521,0.02522 0.01367,-0.06445 -0.05147,-0.08967 0.103489,-0.545682 0.341797,-1.011718 0.371195,-0.72591 0.440289,-1.024469 0.490234,-2.080079 0.06599,-1.394142 -0.162416,-2.331621 -0.736328,-3.013671 -0.378329,-0.449622 -0.355226,-0.465067 0.388672,-0.242188 0.748587,0.224281 1.074921,0.899543 1.15625,2.382812 0.09907,1.806571 -0.348689,3.321753 -1.328125,4.486329 -0.29159,0.346719 -0.529297,0.700773 -0.529297,0.787109 0,0.318881 0.997209,-1.042531 1.433594,-1.957031 0.768015,-1.609508 0.87962,-3.831002 0.253906,-5.041016 -0.113984,-0.220449 -0.207031,-0.429663 -0.207032,-0.464844 0,-0.195438 1.748958,0.736527 2.244141,1.195313 0.72155,0.66852 1.022404,1.631537 0.849609,2.724609 -0.260571,1.648422 -1.457501,2.799064 -3.566406,3.435547 -0.526127,0.15879 -0.642841,0.224623 -0.335937,0.1875 1.538339,-0.18609 3.20712,-1.367164 3.77539,-2.671875 0.371087,-0.852075 0.407941,-2.082842 0.08203,-2.828125 -0.296401,-0.677807 -0.291601,-0.685527 0.285156,-0.394531 0.277864,0.14019 0.650581,0.299151 0.826172,0.353515 l 0.316406,0.09961 -0.380859,-0.703125 c -0.473971,-0.870848 -1.932,-2.238956 -2.982422,-2.798828 -0.434784,-0.231732 -1.362308,-0.61327 -2.0625,-0.84961 -0.876565,-0.295872 -1.865331,-0.469591 -2.847656,-0.517578 z m -34.748047,0.02344 c -0.375678,-0.03099 -0.80139,-0.02262 -1.464844,0.0098 -0.852618,0.04168 -1.91481,0.172416 -2.359375,0.292969 -1.413048,0.383158 -3.151983,1.315853 -4.132813,2.214844 -0.961825,0.881572 -1.952581,2.119684 -1.808593,2.263672 0.04798,0.04798 0.41672,-0.07351 0.816406,-0.269531 l 0.724609,-0.355469 -0.34375,0.751953 c -0.282565,0.618136 -0.328756,0.885855 -0.271484,1.517578 0.129737,1.430817 0.958314,2.581952 2.369141,3.296875 0.684682,0.346957 2.221599,0.799458 2.111328,0.621094 -0.03627,-0.05866 -0.288936,-0.150579 -0.558594,-0.201172 -2.037039,-0.382152 -3.824219,-2.200316 -3.824219,-3.892578 0,-1.667695 1.352448,-3.001416 3.556641,-3.511719 0.865135,-0.200285 1.27939,-0.189565 0.9375,0.0293 -0.08052,0.05155 -0.289753,0.369699 -0.464844,0.703125 -0.278609,0.530532 -0.318298,0.78908 -0.318359,2.085937 -9.8e-5,1.767502 0.307943,2.717831 1.185547,3.669922 0.625309,0.678385 1.083948,0.949076 1.884765,1.107422 l 0.5625,0.111328 -0.513672,0.01563 c -0.282725,0.0081 -0.629828,-0.04919 -0.771484,-0.125 -0.205827,-0.110137 -0.2427,-0.09657 -0.181641,0.0625 0.05334,0.138981 0.326867,0.211623 0.90625,0.240235 1.051509,0.05194 2.82095,-0.03599 2.945313,-0.146485 0.0521,-0.04632 -0.251255,-0.07356 -0.673828,-0.05859 -0.619375,0.02193 -0.68586,0.0077 -0.341797,-0.08008 0.633431,-0.16174 1.583055,-0.757886 2.005859,-1.257812 1.266117,-1.497053 1.492949,-4.0875 0.515625,-5.878906 -0.176898,-0.324236 -0.322265,-0.602277 -0.322266,-0.619141 0,-0.06469 1.307013,0.310536 1.806641,0.519531 0.288402,0.120639 0.824214,0.437374 1.191406,0.701172 0.36718,0.263797 0.697496,0.447012 0.736329,0.408203 0.03881,-0.03881 0.371418,0.07877 0.736328,0.263672 l 0.662109,0.335938 -0.228516,-0.44336 C 54.161146,58.838259 53.535142,58.124375 52.896484,57.492188 51.579872,56.188918 50.253678,55.436067 48.375,54.925781 47.914168,54.800611 47.588568,54.730207 47.212891,54.699219 Z m -5.519566,2.931641 c -0.228554,0 -0.527343,1.423254 -0.527343,2.509766 0,1.707761 0.820389,3.976655 1.648437,4.556641 0.450147,0.3153 0.440996,0.256017 -0.04102,-0.292969 -1.288062,-1.46708 -1.827558,-4.333835 -1.167969,-6.201172 0.111248,-0.314902 0.150411,-0.572266 0.08789,-0.572266 z m 35.015625,0.132813 c -0.463506,0 -0.814218,2.681246 -0.529296,4.052734 0.199832,0.961888 0.80212,2.228864 1.357421,2.861328 0.258326,0.294212 0.553024,0.491337 0.72461,0.486328 0.288915,-0.0085 0.288134,-0.0077 0.0078,-0.121093 -0.705101,-0.285243 -1.689901,-2.017136 -1.957031,-3.44336 -0.191576,-1.022847 -0.05952,-2.665045 0.267578,-3.326171 0.138004,-0.279807 0.197536,-0.509766 0.128906,-0.509766 z m -26.095703,0.04492 c -0.0071,0.02867 0.0064,0.08607 0.03906,0.169922 0.767992,1.973235 0.544872,4.248143 -0.578125,5.912109 -0.225293,0.333818 -0.474946,0.73 -0.554688,0.878906 -0.272137,0.508492 -0.03954,0.270742 0.53125,-0.542969 0.759456,-1.082681 1.110443,-2.109492 1.189453,-3.474609 0.06635,-1.145568 -0.231472,-2.748429 -0.546875,-2.943359 -0.04628,-0.02859 -0.07304,-0.02867 -0.08008,0 z m 2.488281,1.322265 c -0.02281,0.0179 0.0478,0.227902 0.226563,0.621094 0.448925,0.987305 0.406627,2.187482 -0.107422,3.121094 -0.570126,1.035456 -1.381618,1.60363 -2.826172,1.972656 -0.476767,0.121799 -0.567237,0.175534 -0.308593,0.183594 0.722723,0.02266 1.887983,-0.540326 2.607421,-1.259766 1.162757,-1.162765 1.445738,-2.724456 0.742188,-4.103515 -0.194355,-0.380963 -0.311166,-0.55306 -0.333985,-0.535157 z m 32.115235,3.957032 c -0.07321,0.04527 -0.132813,0.139268 -0.132813,0.208984 h 0.002 c 0,0.193782 0.09603,0.149407 0.185546,-0.08398 0.04592,-0.11993 0.02164,-0.172198 -0.05469,-0.125 z M 84.1152,64.095708 c -0.03704,0 -0.176437,0.121339 -0.310546,0.269531 -0.134096,0.148186 -0.212783,0.269532 -0.175782,0.269532 0.03704,0 0.174486,-0.12134 0.308594,-0.269532 0.134096,-0.148185 0.214734,-0.269531 0.177734,-0.269531 z m -1.220703,0.835938 c -0.01286,-0.0059 -0.06863,0.0092 -0.167969,0.04492 -0.148188,0.05321 -0.449598,0.141873 -0.671874,0.199219 -0.330496,0.08525 -0.269981,0.104982 0.335937,0.103516 0.407479,-0.001 0.624797,-0.03045 0.484375,-0.06641 -0.208881,-0.05347 -0.220131,-0.0898 -0.06641,-0.199219 0.06931,-0.04932 0.0988,-0.07618 0.08594,-0.08203 z"
   sodipodi:nodetypes="ccccccsssssccsscccccssccccccscsccscccccscsssscccscccccccccscccssssscccccsccccccscccccccscccscccscsccccsccssscssssscsssscssccccsssssscssssssscssscscscccccssscscsssssssssssscsscccsssscsssccscsscsssscsccccsscscsssssccccsssccsssccscsscscscscscsscsssscscssssssscsssscccsccssssccc" /><ellipse
   style="fill:#ffffff;fill-opacity:0.996078;stroke-width:1.08434"
   id="path20"
   cx="47.51326"
   cy="58.026947"
   rx="0.91050649"
   ry="0.99436891" /><ellipse
   style="fill:#ffffff;fill-opacity:0.996078;stroke-width:1.08434"
   id="ellipse20"
   cx="82.614975"
   cy="57.949284"
   rx="0.91050649"
   ry="0.99436891" /></svg>
